<svg version="1.1" viewBox="0.0 0.0 960.0 720.0" fill="none" stroke="none" stroke-linecap="square" stroke-miterlimit="10" xmlns:xlink="http://www.w3.org/1999/xlink" xmlns="http://www.w3.org/2000/svg"><clipPath id="p.0"><path d="m0 0l960.0 0l0 720.0l-960.0 0l0 -720.0z" clip-rule="nonzero"/></clipPath><g clip-path="url(#p.0)"><path fill="#000000" fill-opacity="0.0" d="m0 0l960.0 0l0 720.0l-960.0 0z" fill-rule="evenodd"/><g filter="url(#shadowFilter-p.1)"><use xlink:href="#p.1" transform="matrix(1.0 0.0 0.0 1.0 5.9990860892388636 -0.1047141732283797)"/></g><defs><filter id="shadowFilter-p.1" filterUnits="userSpaceOnUse"><feGaussianBlur in="SourceAlpha" stdDeviation="18.0" result="blur"/><feComponentTransfer in="blur" color-interpolation-filters="sRGB"><feFuncR type="linear" slope="0" intercept="0.0"/><feFuncG type="linear" slope="0" intercept="0.0"/><feFuncB type="linear" slope="0" intercept="0.0"/><feFuncA type="linear" slope="1.0" intercept="0"/></feComponentTransfer></filter></defs><g id="p.1"><path fill="#351c75" d="m275.53543 174.53575l0 0c0 -20.556473 16.664307 -37.220795 37.220795 -37.220795l303.51117 0c9.871582 0 19.338806 3.921463 26.319092 10.901718c6.9802246 6.980255 10.901672 16.44751 10.901672 26.319077l0 303.51117c0 20.556458 -16.664307 37.220764 -37.220764 37.220764l-303.51117 0c-20.556488 0 -37.220795 -16.664307 -37.220795 -37.220764z" fill-rule="evenodd"/><path stroke="#000000" stroke-width="4.0" stroke-linejoin="round" stroke-linecap="butt" d="m275.53543 174.53575l0 0c0 -20.556473 16.664307 -37.220795 37.220795 -37.220795l303.51117 0c9.871582 0 19.338806 3.921463 26.319092 10.901718c6.9802246 6.980255 10.901672 16.44751 10.901672 26.319077l0 303.51117c0 20.556458 -16.664307 37.220764 -37.220764 37.220764l-303.51117 0c-20.556488 0 -37.220795 -16.664307 -37.220795 -37.220764z" fill-rule="evenodd"/></g><g filter="url(#shadowFilter-p.2)"><use xlink:href="#p.2" transform="matrix(1.0 0.0 0.0 1.0 0.0 2.0)"/></g><defs><filter id="shadowFilter-p.2" filterUnits="userSpaceOnUse"><feGaussianBlur in="SourceAlpha" stdDeviation="2.0" result="blur"/><feComponentTransfer in="blur" color-interpolation-filters="sRGB"><feFuncR type="linear" slope="0" intercept="0.0"/><feFuncG type="linear" slope="0" intercept="0.0"/><feFuncB type="linear" slope="0" intercept="0.0"/><feFuncA type="linear" slope="0.5" intercept="0"/></feComponentTransfer></filter></defs><g id="p.2"><path fill="#20124d" d="m649.874 495.05774l0 -337.69818l40.328064 67.53964l0 202.61888z" fill-rule="evenodd"/><path stroke="#000000" stroke-width="4.0" stroke-linejoin="round" stroke-linecap="butt" d="m649.874 495.05774l0 -337.69818l40.328064 67.53964l0 202.61888z" fill-rule="evenodd"/></g><path fill="#000000" d="m480.0 401.2874l0 0c0 -31.310638 25.382294 -56.692932 56.692932 -56.692932l0 0c15.035889 0 29.455933 5.972992 40.08795 16.60498c10.631958 10.631989 16.60492 25.052032 16.60492 40.08795l0 0c0 31.310608 -25.382263 56.6929 -56.69287 56.6929l0 0c-31.310638 0 -56.692932 -25.382294 -56.692932 -56.6929z" fill-rule="evenodd"/><path stroke="#000000" stroke-width="4.0" stroke-linejoin="round" stroke-linecap="butt" d="m480.0 401.2874l0 0c0 -31.310638 25.382294 -56.692932 56.692932 -56.692932l0 0c15.035889 0 29.455933 5.972992 40.08795 16.60498c10.631958 10.631989 16.60492 25.052032 16.60492 40.08795l0 0c0 31.310608 -25.382263 56.6929 -56.69287 56.6929l0 0c-31.310638 0 -56.692932 -25.382294 -56.692932 -56.6929z" fill-rule="evenodd"/><path fill="#000000" d="m331.40683 257.95145l0 0c0 -31.310638 25.382263 -56.692917 56.6929 -56.692917l0 0c15.035889 0 29.455963 5.972992 40.08795 16.604965c10.631989 10.631989 16.60498 25.052048 16.60498 40.08795l0 0c0 31.310638 -25.382294 56.6929 -56.692932 56.6929l0 0c-31.310638 0 -56.6929 -25.382263 -56.6929 -56.6929z" fill-rule="evenodd"/><path stroke="#000000" stroke-width="4.0" stroke-linejoin="round" stroke-linecap="butt" d="m331.40683 257.95145l0 0c0 -31.310638 25.382263 -56.692917 56.6929 -56.692917l0 0c15.035889 0 29.455963 5.972992 40.08795 16.604965c10.631989 10.631989 16.60498 25.052048 16.60498 40.08795l0 0c0 31.310638 -25.382294 56.6929 -56.692932 56.6929l0 0c-31.310638 0 -56.6929 -25.382263 -56.6929 -56.6929z" fill-rule="evenodd"/></g></svg>