<svg version="1.1" viewBox="0.0 0.0 960.0 720.0" fill="none" stroke="none" stroke-linecap="square" stroke-miterlimit="10" xmlns:xlink="http://www.w3.org/1999/xlink" xmlns="http://www.w3.org/2000/svg"><clipPath id="p.0"><path d="m0 0l960.0 0l0 720.0l-960.0 0l0 -720.0z" clip-rule="nonzero"/></clipPath><g clip-path="url(#p.0)"><path fill="#000000" fill-opacity="0.0" d="m0 0l960.0 0l0 720.0l-960.0 0z" fill-rule="evenodd"/><g filter="url(#shadowFilter-p.1)"><use xlink:href="#p.1" transform="matrix(1.0 0.0 0.0 1.0 5.9990860892388636 -0.1047141732283797)"/></g><defs><filter id="shadowFilter-p.1" filterUnits="userSpaceOnUse"><feGaussianBlur in="SourceAlpha" stdDeviation="18.0" result="blur"/><feComponentTransfer in="blur" color-interpolation-filters="sRGB"><feFuncR type="linear" slope="0" intercept="0.0"/><feFuncG type="linear" slope="0" intercept="0.0"/><feFuncB type="linear" slope="0" intercept="0.0"/><feFuncA type="linear" slope="1.0" intercept="0"/></feComponentTransfer></filter></defs><g id="p.1"><path fill="#351c75" d="m275.53543 174.53575l0 0c0 -20.556473 16.664307 -37.220795 37.220795 -37.220795l303.51117 0c9.871582 0 19.338806 3.921463 26.319092 10.901718c6.9802246 6.980255 10.901672 16.44751 10.901672 26.319077l0 303.51117c0 20.556458 -16.664307 37.220764 -37.220764 37.220764l-303.51117 0c-20.556488 0 -37.220795 -16.664307 -37.220795 -37.220764z" fill-rule="evenodd"/><path stroke="#000000" stroke-width="4.0" stroke-linejoin="round" stroke-linecap="butt" d="m275.53543 174.53575l0 0c0 -20.556473 16.664307 -37.220795 37.220795 -37.220795l303.51117 0c9.871582 0 19.338806 3.921463 26.319092 10.901718c6.9802246 6.980255 10.901672 16.44751 10.901672 26.319077l0 303.51117c0 20.556458 -16.664307 37.220764 -37.220764 37.220764l-303.51117 0c-20.556488 0 -37.220795 -16.664307 -37.220795 -37.220764z" fill-rule="evenodd"/></g><g filter="url(#shadowFilter-p.2)"><use xlink:href="#p.2" transform="matrix(1.0 0.0 0.0 1.0 0.0 2.0)"/></g><defs><filter id="shadowFilter-p.2" filterUnits="userSpaceOnUse"><feGaussianBlur in="SourceAlpha" stdDeviation="2.0" result="blur"/><feComponentTransfer in="blur" color-interpolation-filters="sRGB"><feFuncR type="linear" slope="0" intercept="0.0"/><feFuncG type="linear" slope="0" intercept="0.0"/><feFuncB type="linear" slope="0" intercept="0.0"/><feFuncA type="linear" slope="0.5" intercept="0"/></feComponentTransfer></filter></defs><g id="p.2"><path fill="#20124d" d="m649.874 495.05774l0 -337.69818l40.328064 67.53964l0 202.61888z" fill-rule="evenodd"/><path stroke="#000000" stroke-width="4.0" stroke-linejoin="round" stroke-linecap="butt" d="m649.874 495.05774l0 -337.69818l40.328064 67.53964l0 202.61888z" fill-rule="evenodd"/></g><path fill="#000000" d="m309.26773 219.62335l0 0c0 -26.092178 21.151886 -47.24408 47.24408 -47.24408l0 0c12.529907 0 24.54663 4.977478 33.406616 13.837463c8.859985 8.859985 13.837494 20.876709 13.837494 33.406616l0 0c0 26.092194 -21.151917 47.24411 -47.24411 47.24411l0 0c-26.092194 0 -47.24408 -21.151917 -47.24408 -47.24411z" fill-rule="evenodd"/><path stroke="#000000" stroke-width="4.0" stroke-linejoin="round" stroke-linecap="butt" d="m309.26773 219.62335l0 0c0 -26.092178 21.151886 -47.24408 47.24408 -47.24408l0 0c12.529907 0 24.54663 4.977478 33.406616 13.837463c8.859985 8.859985 13.837494 20.876709 13.837494 33.406616l0 0c0 26.092194 -21.151917 47.24411 -47.24411 47.24411l0 0c-26.092194 0 -47.24408 -21.151917 -47.24408 -47.24411z" fill-rule="evenodd"/><path fill="#000000" d="m527.15485 440.6496l0 0c0 -26.092194 21.151917 -47.24408 47.24408 -47.24408l0 0c12.529907 0 24.54663 4.977478 33.406616 13.837463c8.859985 8.859985 13.837524 20.876709 13.837524 33.406616l0 0c0 26.092194 -21.151917 47.24411 -47.24414 47.24411l0 0c-26.092163 0 -47.24408 -21.151917 -47.24408 -47.24411z" fill-rule="evenodd"/><path stroke="#000000" stroke-width="4.0" stroke-linejoin="round" stroke-linecap="butt" d="m527.15485 440.6496l0 0c0 -26.092194 21.151917 -47.24408 47.24408 -47.24408l0 0c12.529907 0 24.54663 4.977478 33.406616 13.837463c8.859985 8.859985 13.837524 20.876709 13.837524 33.406616l0 0c0 26.092194 -21.151917 47.24411 -47.24414 47.24411l0 0c-26.092163 0 -47.24408 -21.151917 -47.24408 -47.24411z" fill-rule="evenodd"/><path fill="#000000" d="m417.26773 326.20734l0 0c0 -26.092194 21.151886 -47.24408 47.24408 -47.24408l0 0c12.529907 0 24.54663 4.977478 33.406616 13.837463c8.859985 8.859985 13.837494 20.876709 13.837494 33.406616l0 0c0 26.092194 -21.151917 47.24411 -47.24411 47.24411l0 0c-26.092194 0 -47.24408 -21.151917 -47.24408 -47.24411z" fill-rule="evenodd"/><path stroke="#000000" stroke-width="4.0" stroke-linejoin="round" stroke-linecap="butt" d="m417.26773 326.20734l0 0c0 -26.092194 21.151886 -47.24408 47.24408 -47.24408l0 0c12.529907 0 24.54663 4.977478 33.406616 13.837463c8.859985 8.859985 13.837494 20.876709 13.837494 33.406616l0 0c0 26.092194 -21.151917 47.24411 -47.24411 47.24411l0 0c-26.092194 0 -47.24408 -21.151917 -47.24408 -47.24411z" fill-rule="evenodd"/></g></svg>